<svg width="64" height="64" viewBox="0 0 64 64" fill="none" xmlns="http://www.w3.org/2000/svg">
    <path
        d="M32.6777 56.6357C29.4284 56.6357 26.4717 56.2725 23.8076 55.5459C21.1436 54.8193 18.5199 53.5579 15.9365 51.7617V41.1055H22.7783L23.7168 47.3721C24.625 48.139 25.8763 48.7646 27.4707 49.249C29.0651 49.7132 30.8008 49.9453 32.6777 49.9453C34.2721 49.9453 35.6143 49.7233 36.7041 49.2793C37.8141 48.8353 38.6517 48.2096 39.2168 47.4023C39.8021 46.5749 40.0947 45.6061 40.0947 44.4961C40.0947 43.4466 39.8324 42.5182 39.3076 41.7109C38.8031 40.8835 37.9554 40.1367 36.7646 39.4707C35.5941 38.7845 33.9997 38.1286 31.9814 37.5029C28.4899 36.4736 25.5938 35.3535 23.293 34.1426C21.0124 32.9115 19.2969 31.4482 18.1465 29.7529C17.0163 28.0374 16.4512 25.9788 16.4512 23.5771C16.4512 21.1956 17.1071 19.0967 18.4189 17.2803C19.751 15.4437 21.5876 14.0007 23.9287 12.9512C26.2699 11.9017 28.9743 11.3568 32.042 11.3164C35.4326 11.276 38.4297 11.6797 41.0332 12.5273C43.6569 13.375 45.9173 14.5557 47.8145 16.0693V25.999H41.1846L40.0342 19.9443C39.2673 19.46 38.2279 19.0361 36.916 18.6729C35.6243 18.3096 34.151 18.1279 32.4961 18.1279C31.0833 18.1279 29.832 18.3398 28.7422 18.7637C27.6725 19.1875 26.8249 19.8031 26.1992 20.6104C25.5736 21.4176 25.2607 22.3965 25.2607 23.5469C25.2607 24.5358 25.5332 25.4036 26.0781 26.1504C26.623 26.877 27.5312 27.5732 28.8027 28.2393C30.0944 28.8851 31.8704 29.5814 34.1309 30.3281C38.9948 31.6803 42.6781 33.4665 45.1807 35.6865C47.7035 37.9066 48.9648 40.8229 48.9648 44.4355C48.9648 46.9382 48.2887 49.1077 46.9365 50.9443C45.5843 52.7607 43.6872 54.1634 41.2451 55.1523C38.8031 56.1413 35.9473 56.6357 32.6777 56.6357Z"
        fill="#F01879" />
</svg>
