<svg width="256" height="256" viewBox="0 0 256 256" fill="none" xmlns="http://www.w3.org/2000/svg">
    <g>
        <path fill-rule="evenodd" clip-rule="evenodd"
            d="M128 256C198.692 256 256 198.692 256 128C256 57.3076 198.692 0 128 0C57.3076 0 0 57.3076 0 128C0 198.692 57.3076 256 128 256ZM143.081 71.1361C147.431 71.8289 151.667 72.868 155.788 74.2536L161.283 95.3835L190.475 89.8412L184.293 56.5876C176.508 51.0454 168.037 47.1196 158.879 44.8103C149.721 42.2701 139.761 41 129 41C116.407 41 105.189 42.9629 95.3434 46.8887C85.4983 50.8144 77.8283 56.4722 72.3333 63.8619C66.8384 71.2515 64.0909 80.0268 64.0909 90.1876C64.0909 103.12 68.7845 113.511 78.1717 121.363C87.5589 129.214 100.495 134.41 116.98 136.951L136.556 140.068C146.859 141.223 153.727 143.301 157.162 146.303C160.596 149.305 162.313 153.231 162.313 158.08C162.313 164.546 158.879 169.396 152.01 172.629C145.141 175.862 137.013 177.478 127.626 177.478C122.36 177.478 117.209 176.901 112.172 175.746C107.135 174.592 102.212 172.86 97.404 170.551L93.6263 151.499L61 157.388L67.1818 193.412C75.6532 198.493 84.9259 202.303 95 204.843C105.303 207.614 116.865 209 129.687 209C141.822 209 152.926 207.153 163 203.458C173.303 199.763 181.545 194.105 187.727 186.485C193.909 178.633 197 168.819 197 157.041C197 143.878 192.993 133.487 184.98 125.866C176.966 118.245 164.03 113.28 146.172 110.971L125.566 107.854C115.034 106.468 107.936 104.159 104.273 100.926C100.609 97.6928 98.7778 93.4206 98.7778 88.1093C98.7778 81.8742 101.869 77.2557 108.051 74.2536C114.461 71.2515 121.673 69.7505 129.687 69.7505C134.495 69.7505 138.96 70.2124 143.081 71.1361Z"
            fill="#DC3779" />
    </g>
</svg>
