<svg xmlns="http://www.w3.org/2000/svg" xmlns:xlink="http://www.w3.org/1999/xlink" width="840" height="450.78"><rect width="840" height="450.78" rx="5" ry="5" class="a"/><svg y="0%" x="0%"><circle cx="20" cy="20" r="6" fill="#ff5f58"/><circle cx="40" cy="20" r="6" fill="#ffbd2e"/><circle cx="60" cy="20" r="6" fill="#18c132"/></svg><svg height="390.78" viewBox="0 0 80 39.078" width="800" x="15" xmlns="http://www.w3.org/2000/svg" xmlns:xlink="http://www.w3.org/1999/xlink" y="50"><style>.a{fill:#282d35}.g,.i,.j{fill:#d290e4;white-space:pre}.i,.j{fill:#a8cc8c}.j{fill:#b9c0cb}</style><g font-family="Monaco,Consolas,Menlo,'Bitstream Vera Sans Mono','Powerline Symbols',monospace" font-size="1.67"><defs><symbol id="a"><path fill="transparent" d="M0 0h80v19H0z"/></symbol></defs><path class="a" d="M0 0h80v39.078H0z"/><svg width="80"><svg><use xlink:href="#a"/><text x="11.022" y="1.67" class="g">__</text><text x="15.03" y="1.67" class="g">__</text><text x="18.036" y="1.67" class="g">_</text><text x="24.048" y="1.67" class="g">_</text><text x="1.002" y="3.841" class="g">___</text><text x="6.012" y="3.841" class="g">___</text><text x="10.02" y="3.841" class="g">/</text><text x="12.024" y="3.841" class="g">_|/</text><text x="16.032" y="3.841" class="g">_|</text><text x="19.038" y="3.841" class="g">|</text><text x="21.042" y="3.841" class="g">__|</text><text x="25.05" y="3.841" class="g">|</text><text y="6.012" class="g">/</text><text x="2.004" y="6.012" class="g">__|/</text><text x="7.014" y="6.012" class="g">__|</text><text x="11.022" y="6.012" class="g">|_|</text><text x="15.03" y="6.012" class="g">|_|</text><text x="19.038" y="6.012" class="g">|/</text><text x="22.044" y="6.012" class="g">_`</text><text x="25.05" y="6.012" class="g">|</text><text y="8.183" class="g">\__</text><text x="4.008" y="8.183" class="g">\</text><text x="6.012" y="8.183" class="g">(__|</text><text x="12.024" y="8.183" class="g">_|</text><text x="16.032" y="8.183" class="g">_|</text><text x="19.038" y="8.183" class="g">|</text><text x="21.042" y="8.183" class="g">(_|</text><text x="25.05" y="8.183" class="g">|</text><text y="10.354" class="g">|___/\___|_|</text><text x="13.026" y="10.354" class="g">|_|</text><text x="17.034" y="10.354" class="g">|_|\__,_|</text><text x="27.054" y="12.525" style="white-space:pre" fill="#6f7783" font-weight="700">v1.5.0</text><text y="16.867" class="i">✔</text><text x="2.004" y="16.867" class="j">Fetching</text><text x="11.022" y="16.867" class="j">template</text><text x="20.04" y="16.867" class="j">github:scffld-dev/cli/examples/simple...</text><text y="21.209" class="i">✔</text><text x="2.004" y="21.209" class="j">Scaffolding</text><text x="14.028" y="21.209" class="j">template</text><text x="23.046" y="21.209" class="j">github:scffld-dev/cli/examples/simple...</text><text y="25.551" class="j">Wrote</text><text x="6.012" y="25.551" class="j">3</text><text x="8.016" y="25.551" class="j">files</text><text x="14.028" y="25.551" class="j">in</text><text x="17.034" y="25.551" class="j">145ms</text><text y="29.893" class="j">/Users/lindsayevans/Projects/scffld-dev/cli/demo-src/simple/</text><text x="1.002" y="32.064" class="j">simple.css</text><text x="1.002" y="34.235" class="j">MyAwesomeComponent/my-awesome-component.css</text><text x="1.002" y="36.406" class="j">MyAwesomeComponent/my-awesome-component.html</text></svg></svg></g></svg></svg>